<?xml version="1.0" encoding="utf-8"?>
<!-- Generator: Adobe Illustrator 26.0.3, SVG Export Plug-In . SVG Version: 6.00 Build 0)  -->
<svg version="1.1" id="Layer_1" xmlns="http://www.w3.org/2000/svg" xmlns:xlink="http://www.w3.org/1999/xlink" x="0px" y="0px"
	 viewBox="0 0 304.4 471.9" style="enable-background:new 0 0 304.4 471.9;" xml:space="preserve">
<style type="text/css">
	.st0{fill:#3B444F;}
	.st1{fill:#FFFFFF;}
	.st2{fill-rule:evenodd;clip-rule:evenodd;fill:#3B434F;}
	.st3{fill:#3B434F;}
	.st4{fill:#EDF1F1;}
</style>
<path class="st0" d="M211.3,272.6c0,0-46.4-55.9,3.4,2.6s89.6,23,89.6,23s0-114.6,0-198.8s-52.1-87-52.1-87l16.2-4.3
	c-64.5-26.6-86.6,20-91.7,34.4c-0.9,2.5-1.3,4-1.3,4s-4.6,21,3.8,29"/>
<path class="st0" d="M145.6,61c59.1,0,107.1,47.9,107.1,107.1v22.2c0,59.1-47.9,107.1-107.1,107.1S38.5,249.4,38.5,190.3v-22.2
	C38.5,108.9,86.5,61,145.6,61z"/>
<path class="st1" d="M3.1,468.3c0,0-6.6-90,78.1-98.4h38v-17.5c0,0,26.7,11.5,53.8,1.3l0.9,16.2h44.4c0,0,76,3,72.5,99.2L3.1,468.3z
	"/>
<path class="st2" d="M290,471.9H5.5H0l1.4-23.5c2.7-45.9,38.9-81,80.3-81h28.5c-1.8,1.5-3.2,3.1-4.2,4.7H84.2
	c-39.9,0-74.8,33.7-77.4,78l-1,16.3h283.4l-0.5-16.3c-2.6-44.2-37.5-78-77.4-78h-21.8c-0.8-1.6-2-3.2-3.7-4.7h27.7
	c41.4,0,77.6,35.1,80.3,81l1.4,23.5H290z M177.4,372h-1.5v-4.7h1.7C177.5,368.5,177.4,370.1,177.4,372z M117.4,367.3h1.8v4.7h-1.5
	C117.6,370,117.5,368.5,117.4,367.3z"/>
<path class="st3" d="M161,432.6c1.6,0,3,1.3,3,3c0,1.6-1.3,3-3,3c-1.6,0-3-1.3-3-3C158,433.9,159.3,432.6,161,432.6z M161,452.2
	c1.6,0,3,1.3,3,3c0,1.6-1.3,3-3,3c-1.6,0-3-1.3-3-3C158,453.6,159.3,452.2,161,452.2z"/>
<path class="st2" d="M195.6,392.5l-21.8,32.4c-5.9-18.3-23-11.5-23-11.5v54.2c0,1.4-1.3,2.6-3,2.6s-3-1.1-3-2.6v-54.2
	c-0.1-0.1-17.1-6.8-23,11.5L100,392.5c0,0-8.4-21.4,17-30.7c0-9.3,0-9.8,0-9.8h4.8c0,0,0,17.8,0,30.9c0.6,5.3,4.3,20.5,25.9,25.4
	c21.6-5,25.3-20.1,25.9-25.4c0-13.1,0-30.9,0-30.9h4.8c0,0,0,0.5,0,9.8C204,371.1,195.6,392.5,195.6,392.5z M121.5,395.4
	c-1.2-1.3-2.8-4.6-2.8-4.6s-1.6-5.3-1.6-7.7c0-2.9,0-6.7,0-10.8c-0.4-4.9-1.3-5-1.3-5c-19,9.4-10.7,23.9-10.7,23.9l15.8,24.7
	c6.2-10.4,12.8-8.5,12.8-8.5C127.9,404.4,124,399.8,121.5,395.4z M179.8,367.3c0,0-0.9,0.1-1.3,5c0,4.1,0,7.9,0,10.8
	c0,2.3-1.6,7.7-1.6,7.7s-1.7,3.3-2.8,4.6c-2.5,4.5-6.3,9.1-12.2,12.1c0,0,6.6-1.9,12.8,8.5l15.8-24.7
	C190.4,391.2,198.8,376.7,179.8,367.3z"/>
<path class="st1" d="M148,82.7c53.1,0,95,49.6,93.6,109.2l-1.4,63.3c-1.3,56.1-42.5,100.5-92.2,100.5s-90.9-44.4-92.2-100.5
	l-1.4-63.3C53,132.3,94.9,82.7,148,82.7z"/>
<path class="st2" d="M245.9,190l-1.5,65.9c-1.3,58.4-44.6,104.6-96.6,104.6s-95.2-46.2-96.6-104.6L49.7,190
	c-1.4-62,42.5-113.6,98.1-113.6S247.3,128,245.9,190z M147.6,83.2c-52.4,0-93.7,49.2-92.3,108.3l1.4,62.8
	c1.3,55.7,42,99.7,90.9,99.7s89.6-44,90.9-99.7l1.4-62.8C241.2,132.4,199.9,83.2,147.6,83.2z"/>
<path class="st3" d="M193.9,293.6c-7.8,6.7-25.3,13.1-45.7,13.1c-20.4,0-37.9-6.4-45.7-13.1c0,0-0.8-2.2,0.4-3.3
	c1.2-1.2,3-0.9,3-0.9c7.7,6.7,21.9,12.3,42.2,12.3c20.4,0,34.5-5.6,42.2-12.3c0,0,1.9-0.7,2.8,0.2
	C195,291.3,193.9,293.6,193.9,293.6z M134.1,317h27.3v4.3h-27.3V317z"/>
<path class="st1" d="M49.6,199.6c0,0-1-0.8-3-1.4c-1-0.3-2.2-0.6-3.6-0.6c-0.3,0-0.7,0-1.1,0s-0.7,0-1.1,0.1
	c-0.8,0.1-1.5,0.2-2.3,0.5c-3.2,0.9-6.4,3.1-8.3,7.7c-0.9,2.3-1.6,5.1-1.7,8.7c0,0.9-0.1,1.8,0,2.8c0,1,0.1,2,0.1,3.1
	c0.2,2.2,0.5,4.5,0.9,7.1c0,0-0.4,7.8,2.4,16.7c2.6,8.7,8.9,19.5,20.5,22.5C51,244.5,51,221.9,49.6,199.6L49.6,199.6z"/>
<path class="st3" d="M50.9,200.5c0,0-20.2-6.3-19.5,14.5c0,0,3,30.1,4.3,32.8c0,0,7.9,17.5,21,18.3c12.8,0.8,0,0,0,0l0.2,5.6
	c0,0-23-2.9-27.4-29.4L26,218.3c0,0-2.7-31.8,23.7-23.7c25.7,7.9,0,0,0,0L50.9,200.5"/>
<path class="st3" d="M44.2,242.3c0,0-1.1,0.9-2.1,0.9s-2.1-0.9-2.1-0.9l-2.1-21c0,0,2.9-10.3,15.1-4.9l0.3,6c0,0-10.7-3.8-10.5,0.9
	C43.1,227.9,44.2,242.3,44.2,242.3z"/>
<path class="st1" d="M246.6,199.6c0,0,1.1-0.8,3-1.4c1-0.3,2.2-0.6,3.6-0.6c0.3,0,0.7,0,1.1,0c0.4,0,0.7,0,1.1,0.1
	c0.8,0.1,1.5,0.2,2.3,0.5c3.2,0.9,6.4,3.1,8.3,7.6c1,2.3,1.6,5.1,1.7,8.7c0,0.9,0.1,1.8,0,2.8c0,1-0.1,2-0.1,3.1
	c-0.2,2.2-0.5,4.5-0.9,7.1c0,0,0.4,7.8-2.4,16.7c-2.6,8.7-8.9,19.4-20.6,22.5C245.1,244.5,245.2,221.9,246.6,199.6L246.6,199.6z"/>
<path class="st3" d="M244.3,200.5c0,0,20.3-6.2,19.6,14.5c0,0-3,30.1-4.3,32.8c0,0-8,17.5-21.1,18.3c-12.8,0.8,0,0,0,0l-0.2,5.6
	c0,0,23.1-2.9,27.5-29.4l3.5-24c0,0,2.7-31.8-23.8-23.7c-25.8,7.9,0,0,0,0L244.3,200.5"/>
<path class="st3" d="M250.9,242.3c0,0,1.1,0.9,2.1,0.9s2.1-0.9,2.1-0.9l2.1-21c0,0-2.9-10.3-15.1-4.9l-0.3,6c0,0,10.7-3.8,10.5,0.9
	C252.1,227.9,250.9,242.3,250.9,242.3z"/>
<path class="st2" d="M155.7,240.6c0.5,0,1,0,1.5,0c3.1,4.2,4.3,10.6,6,16.2c0.5,1.7,0,4.8-0.4,6c-1.6,4.5-6.7,4.4-10.9,6.4
	c-1.1,0.5-2,1.5-3.4,1.7c-0.9-0.8-2.1-1-2.6-2.3c-1.2-1.6,0.3-2.6,1.5-3.2c2.1-1.1,8.6-2.2,9.4-4.3c1-1.1,0.3-4.4,0-5.5
	c-0.8-3-1.2-5.4-2.3-8.1c-0.7-1.8-2.1-3.6-1.3-5.8C153.7,241.4,155.1,241.1,155.7,240.6z"/>
<path class="st3" d="M96.6,207.8h6c3.3,0,6,2.7,6,6s-2.7,6-6,6h-6c-3.3,0-6-2.7-6-6S93.3,207.8,96.6,207.8z M193.9,207.8h6
	c3.3,0,6,2.7,6,6s-2.7,6-6,6h-6c-3.3,0-6-2.7-6-6S190.6,207.8,193.9,207.8z"/>
<path class="st4" d="M199.4,235.9c5.9,0,10.7,4.8,10.7,10.7s-4.8,10.7-10.7,10.7c-5.9,0-10.7-4.8-10.7-10.7S193.5,235.9,199.4,235.9
	z M96.1,235.9c5.9,0,10.7,4.8,10.7,10.7s-4.8,10.7-10.7,10.7c-5.9,0-10.7-4.8-10.7-10.7S90.3,235.9,96.1,235.9z"/>
<path class="st3" d="M170.8,188.9l2.5,3.1l1.5,1.9c0,0,27.2-15,46,2.3l2,1c0,0-4.6-25.1-45.3-10.4
	C175.4,187.4,173.1,188.1,170.8,188.9z M123.8,188.9l-2.5,3.1l-1.5,1.9c0,0-27.2-15-46,2.3l-2,1c0,0,4.6-25,45.3-10.4
	C119.2,187.4,121.4,188.1,123.8,188.9z"/>
<path class="st2" d="M147.8,133.3V38.8c0.3,0,0.6,0,0.9,0c59.9,0,108.4,48.5,108.4,108.4V182c0,1.2,0,2.4,0,3.6
	C257,185.6,156.4,158.3,147.8,133.3z M38.5,185.6c0-1.2,0-2.4,0-3.6v-34.8c0-59.9,48.5-108.4,108.4-108.4c0.3,0,0.6,0,0.9,0v94.5
	C139.2,158.3,38.5,185.6,38.5,185.6z"/>
</svg>
