<?xml version="1.0" encoding="utf-8"?>
<!-- Generator: Adobe Illustrator 26.0.3, SVG Export Plug-In . SVG Version: 6.00 Build 0)  -->
<svg version="1.1" id="Layer_1" xmlns="http://www.w3.org/2000/svg" xmlns:xlink="http://www.w3.org/1999/xlink" x="0px" y="0px"
	 viewBox="0 0 295.3 425.8" style="enable-background:new 0 0 295.3 425.8;" xml:space="preserve">
<style type="text/css">
	.st0{fill:#FFFFFF;}
	.st1{fill-rule:evenodd;clip-rule:evenodd;fill:#3B434F;}
	.st2{fill:#3B434F;}
	.st3{fill:#EDF1F1;}
</style>
<path class="st0" d="M3.8,423.3c0,0-12-92.5,80.4-100.8h22.2c0,0,7.3-4.7,12.4-4.7v-13.2c0,0,27.7,13.8,56.3,0.4v11.9
	c0,0,1.2-2.3,13.7,6H222c0,0,70.8,8.7,70.8,100.4H3.8z"/>
<path class="st1" d="M290,424.9H5.5H0l1.4-23.5c2.7-45.9,38.9-81,80.3-81h28.5c-1.8,1.5-3.2,3.1-4.2,4.7H84.2
	c-39.9,0-74.8,33.7-77.4,78l-1,16.3h283.4l-0.5-16.3c-2.6-44.2-37.5-78-77.4-78h-21.8c-0.8-1.6-2-3.2-3.7-4.7h27.7
	c41.4,0,77.6,35.1,80.3,81l1.4,23.5H290z M177.4,325h-1.5v-4.7h1.7C177.5,321.6,177.4,323.1,177.4,325z M117.4,320.3h1.8v4.7h-1.5
	C117.6,323,117.5,321.5,117.4,320.3z"/>
<path class="st2" d="M161,385.6c1.6,0,3,1.3,3,3c0,1.6-1.3,3-3,3c-1.6,0-3-1.3-3-3C158,387,159.3,385.6,161,385.6z M161,405.2
	c1.6,0,3,1.3,3,3c0,1.6-1.3,3-3,3c-1.6,0-3-1.3-3-3C158,406.6,159.3,405.2,161,405.2z"/>
<path class="st1" d="M195.6,345.5l-21.8,32.4c-5.9-18.3-23-11.5-23-11.5v54.2c0,1.4-1.3,2.6-3,2.6s-3-1.1-3-2.6v-54.2
	c-0.1-0.1-17.1-6.8-23,11.5L100,345.5c0,0-8.4-21.4,17-30.7c0-9.3,0-9.8,0-9.8h4.8c0,0,0,17.8,0,30.9c0.6,5.3,4.3,20.5,25.9,25.4
	c21.6-5,25.3-20.1,25.9-25.4c0-13.1,0-30.9,0-30.9h4.8c0,0,0,0.5,0,9.8C204,324.1,195.6,345.5,195.6,345.5z M121.5,348.4
	c-1.2-1.3-2.8-4.6-2.8-4.6s-1.6-5.3-1.6-7.7c0-2.9,0-6.7,0-10.8c-0.4-4.9-1.3-5-1.3-5c-19,9.4-10.7,23.9-10.7,23.9l15.8,24.7
	c6.2-10.4,12.8-8.5,12.8-8.5C127.9,357.5,124,352.8,121.5,348.4z M179.8,320.3c0,0-0.9,0.1-1.3,5c0,4.1,0,7.9,0,10.8
	c0,2.3-1.6,7.7-1.6,7.7s-1.7,3.3-2.8,4.6c-2.5,4.5-6.3,9.1-12.2,12.1c0,0,6.6-1.9,12.8,8.5l15.8-24.7
	C190.4,344.2,198.8,329.7,179.8,320.3z"/>
<path class="st0" d="M147.8,45.3c53.3,0,94,30,94,101.7l-2.3,62c-14.2,79.5-49.9,98.3-91.7,98.3c-41.8,0-79.1-19.6-91.7-98.3
	l-2.3-62C53.8,75.6,94.5,45.3,147.8,45.3z"/>
<path class="st1" d="M243.9,208.6c-14.9,82.9-52.3,102.5-96.1,102.5c-43.8,0-82.9-20.4-96.1-102.5L49.2,144
	c0-74.4,42.7-106,98.6-106s98.6,31.2,98.6,106L243.9,208.6z M147.8,43.6c-52.2,0-92.1,30.3-92.1,101.7l2.3,62
	c12.3,78.8,48.9,98.3,89.9,98.3c41,0,75.9-18.8,89.9-98.3l2.3-62C239.9,73.5,200,43.6,147.8,43.6z"/>
<path class="st2" d="M193.9,246.6c-7.8,6.7-25.3,13.1-45.7,13.1c-20.4,0-37.9-6.4-45.7-13.1c0,0-0.8-2.2,0.4-3.3
	c1.2-1.2,3-0.9,3-0.9c7.7,6.7,21.9,12.3,42.2,12.3c20.4,0,34.5-5.6,42.2-12.3c0,0,1.9-0.7,2.8,0.2
	C195,244.3,193.9,246.6,193.9,246.6z M134.1,270h27.3v4.3h-27.3V270z"/>
<path class="st0" d="M49.6,152.6c0,0-1-0.8-3-1.4c-1-0.3-2.2-0.6-3.6-0.6c-0.3,0-0.7,0-1.1,0s-0.7,0-1.1,0.1
	c-0.8,0.1-1.5,0.2-2.3,0.5c-3.2,0.9-6.4,3.1-8.3,7.7c-0.9,2.3-1.6,5.1-1.7,8.7c0,0.9-0.1,1.8,0,2.8c0,1,0.1,2,0.1,3.1
	c0.2,2.2,0.5,4.5,0.9,7.1c0,0-0.4,7.8,2.4,16.7c2.6,8.7,8.9,19.5,20.5,22.5C51,197.5,51,174.9,49.6,152.6L49.6,152.6z"/>
<path class="st2" d="M50.9,153.5c0,0-20.2-6.3-19.5,14.5c0,0,3,30.1,4.3,32.8c0,0,7.9,17.5,21,18.3c12.8,0.8,0,0,0,0l0.2,5.6
	c0,0-23-2.9-27.4-29.4L26,171.3c0,0-2.7-31.8,23.7-23.7c25.7,7.9,0,0,0,0L50.9,153.5"/>
<path class="st2" d="M44.2,195.3c0,0-1.1,0.9-2.1,0.9s-2.1-0.9-2.1-0.9l-2.1-21c0,0,2.9-10.3,15.1-4.9l0.3,6c0,0-10.7-3.8-10.5,0.9
	C43.1,180.9,44.2,195.3,44.2,195.3z M244.3,153.5c0,0,20.3-6.2,19.6,14.5c0,0-3,30.1-4.3,32.8c0,0-8,17.5-21.1,18.3
	c-12.8,0.8,0,0,0,0l-0.2,5.6c0,0,23.1-2.9,27.5-29.4l3.5-24c0,0,2.7-31.8-23.8-23.7c-25.8,7.9,0,0,0,0L244.3,153.5"/>
<path class="st2" d="M250.9,195.3c0,0,1.1,0.9,2.1,0.9s2.1-0.9,2.1-0.9l2.1-21c0,0-2.9-10.3-15.1-4.9l-0.3,6c0,0,10.7-3.8,10.5,0.9
	C252.1,180.9,250.9,195.3,250.9,195.3z"/>
<path class="st0" d="M244.1,152.6c0,0,1-0.8,3-1.4c1-0.3,2.2-0.6,3.6-0.6c0.3,0,0.7,0,1.1,0c0.4,0,0.7,0,1.1,0.1
	c0.8,0.1,1.5,0.2,2.3,0.5c3.2,0.9,6.4,3.1,8.3,7.7c0.9,2.3,1.6,5.2,1.7,8.7c0,0.9,0.1,1.8,0,2.8s-0.1,2-0.1,3.1
	c-0.2,2.2-0.5,4.5-0.9,7.1c0,0,0.4,7.8-2.4,16.8c-2.6,8.8-8.9,19.5-20.5,22.6C242.7,197.7,242.7,175,244.1,152.6L244.1,152.6z"/>
<path class="st2" d="M244.7,153.5c0,0,20.3-6.2,19.6,14.5c0,0-3,30.1-4.3,32.8c0,0-8,17.5-21.1,18.3c-12.8,0.8,0,0,0,0l-0.2,5.6
	c0,0,23.1-2.9,27.5-29.4l3.5-24c0,0,2.7-31.8-23.8-23.7c-25.8,7.9,0,0,0,0L244.7,153.5"/>
<path class="st2" d="M251.4,195.3h4.2l2.1-21c0,0-2.9-10.3-15.1-4.9l-0.3,6c0,0,10.7-3.8,10.5,0.9
	C252.6,180.9,251.4,195.3,251.4,195.3z"/>
<path class="st1" d="M155.7,193.6c0.5,0,1,0,1.5,0c3.1,4.2,4.3,10.6,6,16.2c0.5,1.7,0,4.8-0.4,6c-1.6,4.5-6.7,4.4-10.9,6.4
	c-1.1,0.5-2,1.5-3.4,1.7c-0.9-0.8-2.1-1-2.6-2.3c-1.2-1.6,0.3-2.6,1.5-3.2c2.1-1.1,8.6-2.2,9.4-4.3c1-1.1,0.3-4.4,0-5.5
	c-0.8-3-1.2-5.4-2.3-8.1c-0.7-1.8-2.1-3.6-1.3-5.8C153.7,194.4,155.1,194.1,155.7,193.6z"/>
<path class="st2" d="M100.8,157.3c4.7,0,8.5,3.8,8.5,8.5s-3.8,8.5-8.5,8.5s-8.5-3.8-8.5-8.5S96.1,157.3,100.8,157.3z M195.6,157.3
	c4.7,0,8.5,3.8,8.5,8.5s-3.8,8.5-8.5,8.5c-4.7,0-8.5-3.8-8.5-8.5S190.8,157.3,195.6,157.3z"/>
<path class="st3" d="M199.4,188.9c5.9,0,10.7,4.8,10.7,10.7s-4.8,10.7-10.7,10.7c-5.9,0-10.7-4.8-10.7-10.7S193.5,188.9,199.4,188.9
	z M96.1,188.9c5.9,0,10.7,4.8,10.7,10.7s-4.8,10.7-10.7,10.7c-5.9,0-10.7-4.8-10.7-10.7S90.3,188.9,96.1,188.9z"/>
<path class="st2" d="M57.4,137.7c0,0,28.1-14.2,25-63.2c0,0,44.9,49.2,153.3,34.2l5.1,46.1c0,0,63.7-118-50.3-145.1
	C78.8-16.8,77.6,53.1,77.6,53.1S43.3,48,40.5,81.3c-2.9,33.3,7.5,68.4,7.5,68.4l8.5,6.8L57.4,137.7z"/>
<path class="st1" d="M239.9,159.9l-6.4-48.2C125.2,124.8,85.4,80.9,85.4,80.9C83.8,129.9,60,139,60,139l-1.8,19.6l-11.9-6.8
	c0,0-11.4-37.2-8.7-70.5C40.4,45.4,75,50.6,75,50.6s4.1-71.8,115.4-44.2C311.9,36.4,239.9,159.9,239.9,159.9z M189.6,12.3
	C77.7-12.8,79.9,57.1,79.9,57.1S46.3,48,43.5,81.3c-2.9,33.3,6.6,66.2,6.6,66.2l3.8,3l0.5-14.5c0,0,28.1-9.7,25-67.9
	c0,0,40.2,52.6,158.8,37.6l4.3,38.4C242.5,144.1,294.4,35.8,189.6,12.3z"/>
<path class="st2" d="M175.1,145.7c0,0,25.5-14.6,43.8,1.5l4.8,0.7c0,0-6.2-22.5-51.2-7.9l1.3,4.2 M174.8,144.3c0,0,26-14.9,43.1,3.9
	l8.8-0.3c0,0-11-24-56.2-8.9l4.3,6.2 M120.2,145.8c0,0-25.5-14.5-43.6,1.5l-4.8,0.7c0,0,6.2-22.3,51-7.8l-1.2,4.2 M120.5,144.4
	c0,0-25.9-14.8-43,3.9l-8.8-0.2c0,0,11-23.8,56-8.8l-4.2,6.1"/>
</svg>
